<svg width="120" height="21" viewBox="0 0 120 21" fill="none" xmlns="http://www.w3.org/2000/svg">
<path d="M110.353 21.0002H108.137V18.7051H110.353C111.368 18.7051 111.922 18.3379 112.153 17.6953L112.638 16.41H112.13L107.283 4.24609H110.214L113.722 13.4723L117.161 4.24609H120L114.669 18.4986C114.046 20.1281 112.753 21.0002 110.353 21.0002Z" fill="white"/>
<path d="M99.5147 16.662C96.6989 16.662 94.8526 15.3079 94.8756 13.0358C94.8987 10.1899 97.7375 9.59317 100.115 9.31776C101.961 9.1112 103.323 9.04235 103.346 8.07842C103.323 6.88497 102.4 6.10465 100.83 6.10465C99.2146 6.10465 98.0606 6.97678 97.8991 8.23907H95.1526C95.4065 5.66858 97.7145 3.87842 100.876 3.87842C104.177 3.87842 106 5.66858 106 8.26202V13.7702C106 14.1145 106.185 14.2981 106.6 14.2981H107.269V16.4096H105.977C104.731 16.4096 103.969 15.9046 103.761 14.9866C103.715 14.8719 103.669 14.7112 103.646 14.5735C102.93 15.8817 101.592 16.662 99.5147 16.662ZM100.069 14.5276C101.938 14.5276 103.346 13.4719 103.346 11.8424V10.144C102.884 10.8555 101.707 11.0161 100.415 11.1768C98.8915 11.3604 97.6221 11.5669 97.6221 12.8522C97.6221 13.9079 98.4761 14.5276 100.069 14.5276Z" fill="white"/>
<path d="M82.5427 16.4098H79.7731V0.344238H87.9665C91.2669 0.344238 93.2748 2.52457 93.2748 5.39342C93.2748 8.62948 91.013 10.6033 87.9665 10.6033H82.5427V16.4098ZM82.5427 2.82293V8.12456H87.828C89.559 8.12456 90.4591 6.83932 90.4591 5.39342C90.4591 3.87866 89.4205 2.82293 87.828 2.82293H82.5427Z" fill="white"/>
<path d="M69.9212 16.662C67.1054 16.662 65.2591 15.3079 65.2821 13.0358C65.3052 10.1899 68.144 9.59317 70.5212 9.31776C72.3676 9.1112 73.7293 9.04235 73.7524 8.07842C73.7293 6.88497 72.8061 6.10465 71.2367 6.10465C69.6211 6.10465 68.4671 6.97678 68.3056 8.23907H65.5591C65.813 5.66858 68.1209 3.87842 71.2829 3.87842C74.5833 3.87842 76.4066 5.66858 76.4066 8.26202V13.7702C76.4066 14.1145 76.5912 14.2981 77.0067 14.2981H77.676V16.4096H76.3835C75.1372 16.4096 74.3756 15.9046 74.1678 14.9866C74.1217 14.8719 74.0755 14.7112 74.0524 14.5735C73.337 15.8817 71.9984 16.662 69.9212 16.662ZM70.4751 14.5276C72.3445 14.5276 73.7524 13.4719 73.7524 11.8424V10.144C73.2908 10.8555 72.1137 11.0161 70.8213 11.1768C69.298 11.3604 68.0286 11.5669 68.0286 12.8522C68.0286 13.9079 68.8826 14.5276 70.4751 14.5276Z" fill="white"/>
<path d="M63.6575 16.4098H62.088C59.4339 16.4098 58.0029 15.1016 58.0029 12.6918V6.54098H55.8565V4.24589H58.0029V0.0917969H60.7263V4.24589H63.8883V6.54098H60.7263V12.5082C60.7263 13.541 61.2572 14.1147 62.2727 14.1147H63.6575V16.4098Z" fill="white"/>
<path d="M46.2244 16.4096H43.501V4.24563H45.6936L45.9244 6.03579C46.686 4.7735 48.2324 3.87842 50.0557 3.87842C52.6637 3.87842 54.3716 5.62268 54.3716 8.35383V16.4096H51.6482V8.49153C51.6482 7.13743 50.7481 6.24235 49.2248 6.24235C47.4477 6.24235 46.2475 7.45874 46.2244 9.04235V16.4096Z" fill="white"/>
<path d="M33.0864 16.7541C28.3089 16.7541 25.0315 13.4492 25.0315 8.33115C25.0315 3.46557 28.1242 0 33.0864 0C37.887 0 41.1874 3.28197 41.1874 8.33115C41.1874 13.2426 38.0716 16.7541 33.0864 16.7541ZM33.0864 14.2525C36.3175 14.2525 38.3716 11.9574 38.3716 8.33115C38.3716 4.75082 36.3175 2.47869 33.0864 2.47869C29.8783 2.47869 27.8473 4.75082 27.8473 8.33115C27.8473 11.9574 29.8783 14.2525 33.0864 14.2525Z" fill="white"/>
<path d="M15.147 3.60011C15.5376 4.16174 15.8539 4.75555 16.0982 5.36883C15.3081 4.59043 14.2385 4.11493 13.0627 4.12072L8.34444 4.14393C5.92672 4.15584 3.97607 6.19811 3.98755 8.70546C3.99903 11.2128 5.96827 13.2358 8.38598 13.2239L13.1042 13.2006C14.2731 13.1949 15.3327 12.7146 16.1143 11.9366C15.5435 13.3989 14.5814 14.7175 13.2566 15.7086C9.51048 18.5108 4.28314 17.6331 1.58103 13.7481C-1.12108 9.86307 -0.274728 4.44194 3.47141 1.63965C7.21754 -1.16264 12.4449 -0.284913 15.147 3.60011Z" fill="white"/>
<path d="M15.3614 12.0404C13.57 13.3805 11.0702 12.9608 9.77802 11.1029C8.48584 9.24505 8.89057 6.65261 10.682 5.31253C12.4734 3.97245 14.9732 4.39219 16.2654 6.25004C17.5576 8.1079 17.1528 10.7003 15.3614 12.0404Z" fill="white"/>
</svg>
