<svg width="450" height="141" viewBox="0 0 450 141" fill="none"
    xmlns="http://www.w3.org/2000/svg">
    <path d="M122.422 28.0563C125.579 32.4333 128.136 37.0614 130.11 41.8414C123.725 35.7744 115.079 32.0694 105.576 32.1144L67.442 32.2954C47.901 32.3874 32.136 48.3034 32.228 67.8444C32.321 87.3854 48.237 103.15 67.778 103.057L105.912 102.876C115.359 102.832 123.923 99.0884 130.24 93.0264C125.627 104.422 117.851 114.698 107.144 122.422C76.866 144.261 34.618 137.42 12.778 107.143C-9.06099 76.8664 -2.21999 34.6174 28.057 12.7784C58.334 -9.06064 100.583 -2.22065 122.422 28.0563Z" fill="white"/>
    <path d="M124.155 93.8355C109.676 104.278 89.472 101.007 79.029 86.5285C68.585 72.0495 71.856 51.8465 86.335 41.4025C100.814 30.9585 121.018 34.2295 131.461 48.7085C141.905 63.1875 138.634 83.3915 124.155 93.8355Z" fill="white"/>
    <path d="M389.51 140.201H375.78V125.901H389.51C395.8 125.901 399.24 123.613 400.67 119.609L403.67 111.601H400.52L370.49 35.8105H388.65L410.39 93.2965L431.7 35.8105H449.29L416.25 124.614C412.39 134.767 404.38 140.201 389.51 140.201Z" fill="white"/>
    <path d="M322.36 113.173C304.91 113.173 293.47 104.736 293.62 90.5795C293.76 72.8475 311.35 69.1295 326.08 67.4135C337.52 66.1265 345.95 65.6975 346.1 59.6915C345.95 52.2555 340.23 47.3935 330.51 47.3935C320.5 47.3935 313.35 52.8274 312.35 60.6924H295.33C296.91 44.6764 311.21 33.5225 330.8 33.5225C351.25 33.5225 362.54 44.6764 362.54 60.8354V95.1555C362.54 97.3005 363.69 98.4445 366.26 98.4445H370.41V111.6H362.4C354.68 111.6 349.96 108.454 348.67 102.734C348.39 102.019 348.1 101.018 347.96 100.16C343.52 108.311 335.23 113.173 322.36 113.173ZM325.79 99.8745C337.37 99.8745 346.1 93.2965 346.1 83.1435V72.5615C343.24 76.9945 335.94 77.9955 327.94 78.9965C318.5 80.1405 310.63 81.4275 310.63 89.4355C310.63 96.0135 315.92 99.8745 325.79 99.8745Z" fill="white"/>
    <path d="M217.203 111.6H200.043V11.5005H250.808C271.26 11.5005 283.7 25.0855 283.7 42.9605C283.7 63.1235 269.68 75.4215 250.808 75.4215H217.203V111.6ZM217.203 26.9445V59.9775H249.95C260.675 59.9775 266.25 51.9695 266.25 42.9605C266.25 33.5225 259.817 26.9445 249.95 26.9445H217.203Z" fill="white"/>
</svg>
